<svg xmlns="http://www.w3.org/2000/svg" 
    style="fill: #ffa500;"
    viewBox="0 0 64 80" x="0px" y="0px"><title>Traveling</title><g><path d="M55.51,37.69a2.008,2.008,0,0,0-1.74-.68l-.94.11L9.77,42.01a1.999,1.999,0,0,0-1.63,2.73l3,7.49A5.96156,5.96156,0,0,0,16.71,56H46.93a6.002,6.002,0,0,0,5.79-4.45l3.21-12.03A1.995,1.995,0,0,0,55.51,37.69Z"/><path d="M36.66,36.58a2.018,2.018,0,0,0,1.34.51,1.69254,1.69254,0,0,0,.22-.01l10-1.09a2.00484,2.00484,0,0,0,1.55-1.05,1.55609,1.55609,0,0,0,.15-.41,1.9508,1.9508,0,0,0-.15-1.46l-10-19A2.00012,2.00012,0,0,0,36,15V35.09a2.01355,2.01355,0,0,0,.5,1.33A1.20892,1.20892,0,0,0,36.66,36.58Z"/><path d="M11.51,39.33A1.98064,1.98064,0,0,0,13,40c.08,0,19.23-2.22,19.23-2.22A2.00146,2.00146,0,0,0,34,35.79V10a1.99451,1.99451,0,0,0-3.03-1.71C20.54,14.54,14.22,23.84,11.05,37.55a1.84759,1.84759,0,0,0,.03.99A1.91355,1.91355,0,0,0,11.51,39.33Z"/></g></svg>
